<?xml version="1.0" encoding="UTF-8" standalone="no"?><!DOCTYPE svg PUBLIC "-//W3C//DTD SVG 1.1//EN" "http://www.w3.org/Graphics/SVG/1.1/DTD/svg11.dtd"><svg width="100%" height="100%" viewBox="0 0 420 596" version="1.1" xmlns="http://www.w3.org/2000/svg" xmlns:xlink="http://www.w3.org/1999/xlink" xml:space="preserve" xmlns:serif="http://www.serif.com/" style="fill-rule:evenodd;clip-rule:evenodd;stroke-linejoin:round;stroke-miterlimit:2;"><g><path d="M231.36,151.2l91.68,187.92l-183.36,0l91.68,-187.92Z" style="fill:#ebebeb;"/><circle cx="231.24" cy="365.4" r="95.64" style="fill:#ebebeb;"/><path d="M263.16,336.96l4.984,15.34l16.129,0l-13.049,9.481l4.984,15.34l-13.049,-9.481l-13.049,9.481l4.984,-15.34l-13.049,-9.481l16.129,-0l4.984,-15.34Z" style="fill:#f00;"/><path d="M199.8,336.96l4.984,15.34l16.129,0l-13.049,9.481l4.984,15.34l-13.049,-9.481l-13.049,9.481l4.984,-15.34l-13.049,-9.481l16.129,-0l4.984,-15.34Z" style="fill:#f00;"/><path d="M197.28,395.64c8.316,5.901 21.423,10.692 35.64,10.692c14.217,0 27.324,-4.791 35.64,-10.692c0,19.67 -15.97,35.64 -35.64,35.64c-19.67,0 -35.64,-15.97 -35.64,-35.64Z" style="fill:#f00;"/></g></svg>